# xmcd
#
# Track frame offsets: 
#        150
#        13351
#        28707
#        40178
#        55558
#        71979
#        88093
#        102359
#        114991
#        129316
#        145122
#        159933
#        181991
#        189981
#        205550
#        216726
#        231465
#        247105
#        262058
#        277082
#        292580
#
# Disc length: 4098 seconds
#
# Revision: 1
# Processed by: cddbd v1.5.2PL0 Copyright (c) Steve Scherf et al.
# Submitted via: ExactAudioCopy v0.99pb4
#
DISCID=3a100015
DTITLE=Glenn Miller - Anvil Chorus, Quadromania [CD2]
DYEAR=2005
DGENRE=Jazz
TTITLE0=Little Brown Jug
TTITLE1=Sunrise Serenade
TTITLE2=The Jumpin' Jive
TTITLE3=Moonlight Serenade
TTITLE4=Hallelujah!
TTITLE5=In The Mood
TTITLE6=Farewell Blues
TTITLE7=Johnson Rag
TTITLE8=My Melancholy Baby
TTITLE9=Tuxedo Junction
TTITLE10=Pennsylvania 6-5000
TTITLE11=Anvil Chorus
TTITLE12=Under A Blanket Of Blue
TTITLE13=Son Of The Volga Boatmen
TTITLE14=Sun Valley Jump
TTITLE15=Perfidia
TTITLE16=Chattanooga Choo Choo
TTITLE17=A String Of Pearls
TTITLE18=American Patrol
TTITLE19=Serenade In Blue
TTITLE20=I've Got A Gal In Kalamazoo
EXTD=
EXTT0=
EXTT1=
EXTT2=
EXTT3=
EXTT4=
EXTT5=
EXTT6=
EXTT7=
EXTT8=
EXTT9=
EXTT10=
EXTT11=
EXTT12=
EXTT13=
EXTT14=
EXTT15=
EXTT16=
EXTT17=
EXTT18=
EXTT19=
EXTT20=
PLAYORDER=
